# xmcd
#
# Track frame offsets: 
#        150
#        26840
#        45068
#        67051
#        90855
#        104489
#        131476
#        145489
#        164025
#        182206
#        199896
#        217070
#        237780
#        271596
#
# Disc length: 3986 seconds
#
# Revision: 1
# Processed by: cddbd v1.5.2PL0 Copyright (c) Steve Scherf et al.
# Submitted via: ExactAudioCopy v0.99pb4
#
DISCID=cb0f900e
DTITLE=Ilse DeLange - Live In Ahoy
DYEAR=2009
DGENRE=Country
TTITLE0=Broken Girl
TTITLE1=We're Alright
TTITLE2=World Of Hurt
TTITLE3=Livin' On Love
TTITLE4=When We Don't Talk
TTITLE5=Flying Blind
TTITLE6=I'd Be Yours
TTITLE7=Stuck In The Middle
TTITLE8=Love Won't Hide
TTITLE9=Pirate Of Your Soul
TTITLE10=Puzzle Me
TTITLE11=Miracle
TTITLE12=I'm Not So Tough
TTITLE13=So Incredible
EXTD=
EXTT0=
EXTT1=
EXTT2=
EXTT3=
EXTT4=
EXTT5=
EXTT6=
EXTT7=
EXTT8=
EXTT9=
EXTT10=
EXTT11=
EXTT12=
EXTT13=
PLAYORDER=
